# xmcd CD database file
#
# Track frame offsets:
#	150
#	10378
#	31262
#	44978
#	75778
#	86829
#	113156
#	127700
#	145428
#	161385
#
# Disc length: 2299 seconds
#
# Revision: 0
# Processed by: cddbd v1.5.1PL0 Copyright (c) Steve Scherf et al.
# Submitted via: CDex 1.51
#
DISCID=7708f90a
DTITLE=Stevie Ray Vaughan - The Sky is Crying
DYEAR=1900
DGENRE=Blues
TTITLE0=Boot Hill
TTITLE1=The Sky is Crying
TTITLE2=Empty Arms
TTITLE3=Little Wing
TTITLE4=Wham
TTITLE5=May I Have a Talk With You
TTITLE6=Close to You
TTITLE7=Chitlins Con Carne
TTITLE8=So Excited
TTITLE9=Life by the Drop
EXTD=
EXTT0=
EXTT1=
EXTT2=
EXTT3=
EXTT4=
EXTT5=
EXTT6=
EXTT7=
EXTT8=
EXTT9=
PLAYORDER=
